<svg width="226" height="43" viewBox="0 0 226 43" fill="none" xmlns="http://www.w3.org/2000/svg">
<path d="M29.2653 0L28.1279 4.73158H29.6691H33.6159H33.6272L27.0588 32.0178H21.5708L20.4277 36.7493H33.087L41.9359 0H29.2653Z" fill="url(#paint0_linear_282_337)"/>
<path d="M174.431 33.2707L179.191 12.8214H186.409L181.447 33.2707H174.431Z" fill="white"/>
<path d="M188.238 6.20463C188.213 9.35408 185.196 10.8663 183.351 10.8663C181.513 10.8663 179.998 9.65891 179.972 7.793C179.972 4.61682 183.002 3.02844 184.859 3.02844C186.668 3.02844 188.164 4.26536 188.236 6.08634L188.238 6.20463Z" fill="white"/>
<path d="M65.9917 3.69714H52.936L45.8159 33.2706H54.1877L56.4921 23.6471H59.7513C69.3259 23.6471 73.9347 18.7603 73.9347 11.9188C73.9347 3.69714 67.5442 3.69714 65.9917 3.69714ZM61.2851 17.1327H58.0333L59.6836 10.4641H62.0671C62.0671 10.4641 65.3638 10.2008 65.3638 13.005C65.3638 15.8093 63.176 17.1327 61.2851 17.1327Z" fill="white"/>
<path d="M90.8502 12.3209L89.3238 18.7114C89.3238 18.7114 81.7158 18.0051 79.9898 24.7186C79.9864 24.726 79.9864 24.7373 79.9824 24.7453L78.1444 33.2707H70.8286L75.6404 12.8208H82.5575L81.9825 15.4897C82.065 15.3959 84.764 12.3209 88.1961 12.3209H90.8502Z" fill="white"/>
<path d="M107.568 12.8215L107.057 15.0803C107.057 15.0803 105.35 12.3204 101.365 12.3204C97.3802 12.3204 88.02 15.4898 88.02 26.1284C88.02 33.0831 93.7343 34.1357 96.8167 34.1357C99.8956 34.1357 102 32.8004 103.316 31.6613L102.955 33.2707H109.673L114.586 12.8215H107.568ZM99.8126 28.3196C96.6136 28.3196 95.5985 26.6846 95.5985 24.978C95.5985 23.2713 97.0157 18.223 101.884 18.223C104.617 18.223 105.477 19.9035 105.477 21.3844C105.477 28.4482 99.8126 28.3196 99.8126 28.3196Z" fill="white"/>
<path d="M133.209 12.8214L132.698 15.0809C132.698 15.0809 130.991 12.3215 127.006 12.3215C123.021 12.3215 113.608 15.4903 113.608 26.129C113.608 32.6207 118.894 33.4703 122.229 33.4703C125.307 33.4703 127.412 32.1356 128.728 30.9965L128.367 32.6059C128.367 32.6059 127.593 37.4324 122.879 37.4324C121.353 37.4324 119.747 37.2817 119.747 35.2748H112.18C112.18 35.2748 110.376 42.2442 121.827 42.2442C133.28 42.2442 135.134 33.2707 135.134 33.2707L140.047 12.8214H133.209ZM125.349 27.9744C122.15 27.9744 121.134 26.3394 121.134 24.6327C121.134 22.9261 122.552 17.8777 127.42 17.8777C130.152 17.8777 131.013 19.5577 131.013 21.0386C131.013 28.1024 125.349 27.9744 125.349 27.9744Z" fill="white"/>
<path d="M175.608 17.5575C175.457 18.7978 174.401 23.162 174.401 23.162L172.059 33.2707H164.917L167.8 21.125C167.804 21.121 167.803 21.1176 167.803 21.1102C168.156 19.1328 167.232 17.7418 165.552 17.7418C161.756 17.7418 160.996 21.6248 160.996 21.6248L160.623 23.162L158.282 33.2707H151.139L153.951 21.4184C154.459 19.279 153.73 17.7418 151.963 17.7418C148.523 17.7418 147.576 20.9293 147.429 21.527C147.422 21.5532 147.418 21.5759 147.414 21.5907C147.41 21.6135 147.407 21.6248 147.407 21.6248L144.707 33.2707H137.565L142.415 12.8208H149.444L148.775 15.7081C148.775 15.7081 151.173 12.3209 156.399 12.3209C161.624 12.3209 162.225 15.8656 162.225 15.8656C162.225 15.8656 164.819 12.3209 169.969 12.3209C175.12 12.3209 175.758 16.3166 175.608 17.5575Z" fill="white"/>
<path d="M174.431 33.2707L179.191 12.8214H186.409L181.447 33.2707H174.431Z" fill="white"/>
<path d="M183.839 33.2707L191.071 2.59619H198.287L190.856 33.2707H183.839Z" fill="white"/>
<path d="M217.703 25.1019C218.033 23.94 218.21 22.6775 218.21 21.3086C218.21 17.9522 218.21 12.3209 208.561 12.3209C202.85 12.3209 195.073 17.2038 195.073 25.9703C195.073 32.3198 198.588 34.4513 204.399 34.4513C209.512 34.4513 214.722 31.8722 217.011 26.974H209.391C208.44 28.5527 207.211 29.4621 205.23 29.4621C203.478 29.4621 202.035 28.3122 202.008 26.5344C202.008 26.1432 202.057 25.4442 202.143 25.1019H217.703ZM208.008 16.8995C209.733 16.8995 211.158 18.0762 211.226 19.813V19.9256C211.226 20.0683 211.219 20.2037 211.199 20.339H203.49C204.084 18.046 206.471 16.8995 208.008 16.8995Z" fill="white"/>
<path d="M217.207 4.47852L216.888 5.54255H217.992L217.056 9.35227H218.446L219.331 5.54255H220.246L220.53 4.47852H217.207Z" fill="white"/>
<path d="M221.109 4.47913L219.975 9.41543H221.13L221.832 6.20115L222.017 9.35288H222.875L224.511 6.08456L223.859 9.35288H225.151L225.925 4.47913H224.267L222.953 7.04794L222.728 4.47913H221.109Z" fill="white"/>
<path d="M20.3651 4.73158L21.5082 0H8.84896L0 36.7493H5.31734H12.6592L13.7966 32.0178H8.30869L14.8772 4.73158H20.3651Z" fill="url(#paint1_linear_282_337)"/>
<defs>
<linearGradient id="paint0_linear_282_337" x1="-0.142112" y1="28.2928" x2="-0.142112" y2="8.38831" gradientUnits="userSpaceOnUse">
<stop stop-color="#B2FF73"/>
<stop offset="0.26" stop-color="#9AFF88"/>
<stop offset="0.51" stop-color="#81FF9E"/>
<stop offset="0.76" stop-color="#67F9AE"/>
<stop offset="1" stop-color="#4CF3BF"/>
</linearGradient>
<linearGradient id="paint1_linear_282_337" x1="-0.142175" y1="28.2928" x2="-0.142175" y2="11.2318" gradientUnits="userSpaceOnUse">
<stop stop-color="#B2FF73"/>
<stop offset="0.26" stop-color="#9AFF88"/>
<stop offset="0.51" stop-color="#81FF9E"/>
<stop offset="0.76" stop-color="#67F9AE"/>
<stop offset="1" stop-color="#4CF3BF"/>
</linearGradient>
</defs>
</svg>
